<svg width="50" height="50" viewBox="0 0 50 50" fill="none" xmlns="http://www.w3.org/2000/svg">
<circle cx="25" cy="25" r="25" fill="#4EB5EF"/>
<path d="M33.375 28.7812C33.0938 31.1875 32.2031 33.0469 30.7031 34.3594C29.2135 35.6615 27.2292 36.3125 24.75 36.3125C22.0625 36.3125 19.9062 35.349 18.2812 33.4219C16.6667 31.4948 15.8594 28.9167 15.8594 25.6875V23.5C15.8594 21.3854 16.2344 19.526 16.9844 17.9219C17.7448 16.3177 18.8177 15.0885 20.2031 14.2344C21.5885 13.3698 23.1927 12.9375 25.0156 12.9375C27.4323 12.9375 29.3698 13.6146 30.8281 14.9688C32.2865 16.3125 33.1354 18.1771 33.375 20.5625H30.3594C30.099 18.75 29.5312 17.4375 28.6562 16.625C27.7917 15.8125 26.5781 15.4062 25.0156 15.4062C23.099 15.4062 21.5938 16.1146 20.5 17.5312C19.4167 18.9479 18.875 20.9635 18.875 23.5781V25.7812C18.875 28.25 19.3906 30.2135 20.4219 31.6719C21.4531 33.1302 22.8958 33.8594 24.75 33.8594C26.4167 33.8594 27.6927 33.4844 28.5781 32.7344C29.474 31.974 30.0677 30.6562 30.3594 28.7812H33.375Z" fill="white"/>
</svg>
