<svg width="50" height="50" viewBox="0 0 50 50" fill="none" xmlns="http://www.w3.org/2000/svg">
<circle cx="25" cy="25" r="25" fill="#4EB5EF"/>
<path d="M21.1641 27.2324C20.9004 29.4883 20.0654 31.2314 18.6592 32.4619C17.2627 33.6826 15.4023 34.293 13.0781 34.293C10.5586 34.293 8.53711 33.3896 7.01367 31.583C5.5 29.7764 4.74316 27.3594 4.74316 24.332V22.2812C4.74316 20.2988 5.09473 18.5557 5.79785 17.0518C6.51074 15.5479 7.5166 14.3955 8.81543 13.5947C10.1143 12.7842 11.6182 12.3789 13.3271 12.3789C15.5928 12.3789 17.4092 13.0137 18.7764 14.2832C20.1436 15.543 20.9395 17.291 21.1641 19.5273H18.3369C18.0928 17.8281 17.5605 16.5977 16.7402 15.8359C15.9297 15.0742 14.792 14.6934 13.3271 14.6934C11.5303 14.6934 10.1191 15.3574 9.09375 16.6855C8.07812 18.0137 7.57031 19.9033 7.57031 22.3545V24.4199C7.57031 26.7344 8.05371 28.5752 9.02051 29.9424C9.9873 31.3096 11.3398 31.9932 13.0781 31.9932C14.6406 31.9932 15.8369 31.6416 16.667 30.9385C17.5068 30.2256 18.0635 28.9902 18.3369 27.2324H21.1641ZM44.2061 39.2295H41.4082V34H26.1006V39.2441H23.2881L23.2734 31.7002H25.0166C25.9346 30.665 26.6621 29.2783 27.1992 27.54C27.7461 25.792 28.0879 23.8779 28.2246 21.7979L28.6934 12.6719H41.4521V31.7002H44.2354L44.2061 39.2295ZM28.2246 31.7002H38.625V14.9863H31.4033L31.0957 21.2559C30.9688 23.707 30.6416 25.7969 30.1143 27.5254C29.5967 29.2539 28.9668 30.6455 28.2246 31.7002Z" fill="white"/>
</svg>
